<?xml version="1.0" encoding="utf-8"?>
<!-- Generator: Adobe Illustrator 24.0.1, SVG Export Plug-In . SVG Version: 6.00 Build 0)  -->
<svg version="1.1" id="Layer_1" xmlns="http://www.w3.org/2000/svg" xmlns:xlink="http://www.w3.org/1999/xlink" x="0px" y="0px"
	 viewBox="0 0 663 634" style="enable-background:new 0 0 663 634;" xml:space="preserve">
<style type="text/css">
	.st0{fill:#3562BF;}
	.st1{fill:#4783FF;}
</style>
<g id="Layer_2_1_">
	<path class="st0" d="M16.8,322.2l81.6-52.5l96.2,39.8c0,0,3.9-112.7,122.4-127.2l40.8-88.4l-56.3-78.7
		C301.4,15.3,24.6,33.7,16.8,322.2z"/>
	<path class="st1" d="M16.8,342.6l83.5-53.4l93.2,37.9c0,0,9.7,104.9,133.1,116.6l-37.9,87.4l54.4,79.7
		C343.2,610.7,69.3,628.2,16.8,342.6z"/>
	<path class="st0" d="M307.3,532l56.3,78.7c0,0,282.7-25.3,282.7-307.9l-81.6,53.4l-95.2-39.8c0,0,1,107.8-122.4,126.3L307.3,532z"
		/>
	<path class="st1" d="M646.3,282.4l-83.5,55.4L468.6,298c0,0-6.8-105.9-132.1-115.6L376.3,93l-55.4-78.7
		C320.9,14.3,599.6-3.2,646.3,282.4z"/>
</g>
</svg>
